# xmcd CD database file
#
# Track frame offsets:
#	150
#	11655
#	21788
#	35223
#	46670
#	61785
#	72233
#	85005
#	97225
#	112263
#	124150
#	134868
#	147330
#	157158
#	169108
#	185143
#
# Disc length: 2629 seconds
#
# Revision: 2
# Processed by: cddbd v1.4b41PL1 Copyright (c) Steve Scherf et al.
# Submitted via: Feurio! 1.56ß - http://www.feurio.com
#
DISCID=ed0a4310,f10a4310
DTITLE=Connie Smith - The Wayward Wind
DYEAR=1900
DGENRE=
TTITLE0=Coming Around
TTITLE1=That's What Loving You Can Do
TTITLE2=Don't Treat Me Like A Stranger
TTITLE3=Every Move You Make (Is Saying Goodbye)
TTITLE4=It Pleases Me
TTITLE5=I Don't Want To Be Free
TTITLE6=You And Love And I
TTITLE7=Lovin' One Day At A Time
TTITLE8=I Just Want To Be Your Everything
TTITLE9=All Of A Sudden
TTITLE10=Too Good To Be True
TTITLE11=Wayward Wind
TTITLE12=Your Smiling Face
TTITLE13=Lovin' You My Baby
TTITLE14=You Light Up My Life
TTITLE15=It's Not Easy To Say Goodbye
EXTD=
EXTT0=
EXTT1=
EXTT2=
EXTT3=
EXTT4=
EXTT5=
EXTT6=
EXTT7=
EXTT8=
EXTT9=
EXTT10=
EXTT11=
EXTT12=
EXTT13=
EXTT14=
EXTT15=
PLAYORDER=
